<svg xmlns="http://www.w3.org/2000/svg" version="1.1" xmlns:xlink="http://www.w3.org/1999/xlink" xmlns:svgjs="http://svgjs.dev/svgjs" width="100%" height="100%" viewBox="0 0 1000 600"><rect width="1000" height="600" x="0" y="0" fill="#141a46"/><g><rect width="333.3333333333333" height="333.3333333333333" rx="13.333333333333334" ry="13.333333333333334" y="113.58657980075839" fill="#ec8b5e" transform="matrix(1.3681485269522922,0,0,1.3681485269522922,0,-83.42805022391114)" x="91.36434936523436"/><path d="M310.067264939732 355.2532435642513L310.067264939732 355.2532435642513Q306.4851752126797 355.2532435642513 302.64722193369505 350.07200663762205L302.64722193369505 350.07200663762205L215.39775072477838 226.39396222234313L215.39775072477838 322.4387430289329Q215.39775072477838 337.72659025688824 216.9968979243553 343.32360545540746L216.9968979243553 343.32360545540746Q217.44465914023684 344.251110831162 220.93080003531452 345.46646270284054Q224.4169409303922 346.71379751851055 228.44679187332605 347.513371118299Q232.50862576025142 348.2809617740959 233.85190940789602 348.2809617740959L233.85190940789602 348.2809617740959Q234.52355123171833 348.2809617740959 234.61950006369295 350.9995120133767Q234.7474318396591 353.68607930866585 234.29967062377756 354.80548234836976L234.29967062377756 354.80548234836976Q223.04167433875605 354.3577211324882 216.64508554044838 354.0059087485813Q210.2484967421407 353.68607930866585 208.425468934623 353.68607930866585L208.425468934623 353.68607930866585L182.58325018946002 354.80548234836976Q181.9116083656377 354.1338405245474 181.9116083656377 351.44727322925814L181.9116083656377 351.44727322925814Q181.9116083656377 348.2809617740959 182.58325018946002 348.2809617740959L182.58325018946002 348.2809617740959Q184.8220562688677 348.2809617740959 188.88389015579307 347.513371118299Q192.91374109872692 346.71379751851055 196.52781376977075 345.46646270284054Q200.10990349682305 344.251110831162 200.55766471270456 342.8758442395259L200.55766471270456 342.8758442395259Q202.8284537361038 337.50270964894753 202.8284537361038 321.73511826111906L202.8284537361038 321.73511826111906L202.8284537361038 233.36624401249847Q202.8284537361038 221.91635006352774 201.22930653652688 216.51123252895775L201.22930653652688 216.51123252895775Q200.78154532064534 215.16794888131315 197.29540442556768 214.14449467358392Q193.80926353048997 213.1210404658547 189.77941258755615 212.4493986420324Q185.71757870063078 211.7777568182101 183.4787726212231 211.7777568182101L183.4787726212231 211.7777568182101Q182.58325018946002 211.7777568182101 182.58325018946002 208.8673089149801L182.58325018946002 208.8673089149801Q182.58325018946002 206.14875867569933 183.4787726212231 205.25323624393627L183.4787726212231 205.25323624393627Q192.2420992749046 205.47711685187704 197.96704624938997 205.6050486278432Q203.72397616786688 205.7009974598178 206.4105434631561 205.7009974598178L206.4105434631561 205.7009974598178Q212.26342221360764 205.7009974598178 216.741034372423 205.6050486278432Q221.2506294752299 205.47711685187704 224.4169409303922 205.25323624393627L224.4169409303922 205.25323624393627Q228.67067248126682 212.89715985791392 247.66854121224057 240.46645757861998Q266.6664099432144 268.0037723553345 300.63229646222817 315.46646123877747L300.63229646222817 315.46646123877747Q301.3039382860504 311.62850795979296 301.3039382860504 306.2233904252229L301.3039382860504 306.2233904252229L301.3039382860504 236.30867485972Q301.3039382860504 222.14023067146852 299.7367740304651 216.51123252895775L299.7367740304651 216.51123252895775Q299.28901281458354 215.16794888131315 295.67494014353963 214.04854584160933Q292.0928504164874 212.89715985791392 288.03101652956207 212.129569202117Q284.0011655866282 211.32999560232855 281.9862401151613 211.32999560232855L281.9862401151613 211.32999560232855Q281.05873473940665 211.32999560232855 281.05873473940665 208.64342830703933L281.05873473940665 208.64342830703933Q281.05873473940665 206.14875867569933 281.9862401151613 205.25323624393627L281.9862401151613 205.25323624393627Q284.0011655866282 205.25323624393627 288.7026583533843 205.6050486278432Q293.43613406413203 205.92487806775856 298.9372004306766 206.2766904516655Q304.4702497412128 206.59651989158087 308.50010068414656 206.59651989158087L308.50010068414656 206.59651989158087Q314.35297943459807 206.59651989158087 323.34018669622037 205.92487806775856L323.34018669622037 205.92487806775856Q332.1354962938934 205.25323624393627 333.70266054947876 205.25323624393627L333.70266054947876 205.25323624393627Q334.1504217653603 207.07626405145396 334.1504217653603 208.64342830703933L334.1504217653603 208.64342830703933Q334.1504217653603 211.32999560232855 333.2548993335972 211.32999560232855L333.2548993335972 211.32999560232855Q331.87963274196113 211.32999560232855 327.62590119108654 212.22551803409164Q323.34018669622037 213.1210404658547 319.63016519320195 214.27242644955007Q315.9201436901835 215.39182948925392 315.472382474302 216.51123252895775L315.472382474302 216.51123252895775Q314.5768600425389 220.09332225601005 314.12909882665735 225.27455918263928Q313.6813376107758 230.45579610926848 313.6813376107758 237.42807789942387L313.6813376107758 237.42807789942387L313.6813376107758 322.88650424481443Q313.6813376107758 336.83106782512516 314.35297943459807 354.3577211324882L314.35297943459807 354.3577211324882Q313.457457002835 355.2532435642513 310.067264939732 355.2532435642513Z " fill="#141a46" transform="matrix(1.3681485269522922,0,0,1.3681485269522922,0,-83.42805022391114)"/><path d="M578.6882439092362 355.2532368589199L578.6882439092362 355.2532368589199Q563.9798752598567 355.2532368589199 551.1734508323798 349.4523069821172Q538.3670264049028 343.6830761756796 528.6671108732 333.6344708699612Q518.9671953414972 323.617564634608 513.51495523871 310.33565415165526Q508.0310160655576 297.08544273906773 508.0310160655576 282.1551805971329L508.0310160655576 282.1551805971329Q508.0310160655576 266.33734448497694 513.6100524498052 252.3897535243585Q519.1890888340524 238.47386163410502 529.2059950694056 227.88637213218098Q539.254600375124 217.29888263025694 552.5048117877116 211.27605926089896Q565.7550232002991 205.25323589154098 581.1607713977096 205.25323589154098L581.1607713977096 205.25323589154098Q594.2841865288369 205.25323589154098 607.8830877154401 206.58459684687276Q621.481988902043 207.94765687256958 635.3027835812015 210.83227227578837L635.3027835812015 210.83227227578837L634.858996596091 242.91173148521088Q634.858996596091 246.27183294390537 630.1992332524296 246.27183294390537L630.1992332524296 246.27183294390537Q627.9485992565117 246.27183294390537 627.2829187788457 245.1623654811289L627.2829187788457 245.1623654811289Q626.6172383011799 242.24605100754505 625.6028680494985 239.23463932286606Q624.6201968681821 236.22322763818704 621.481988902043 231.34157080197056L621.481988902043 231.34157080197056Q616.1565450807161 223.54359949217022 606.2347360564579 219.0740305706993Q596.3129270321997 214.60446164922837 581.8264518753756 214.60446164922837L581.8264518753756 214.60446164922837Q570.890272599436 214.60446164922837 561.3171533491932 219.86650732982537Q551.7440340989506 225.0968539400573 544.4849469853559 234.0042927126341Q537.2258598717613 242.91173148521088 533.2317770057662 254.19660053516586Q529.2059950694056 265.44977051475576 529.2059950694056 277.4637181831067L529.2059950694056 277.4637181831067Q529.2059950694056 295.97597527629125 535.4507119313189 310.68434392567076L535.4507119313189 310.68434392567076Q541.6954287932322 325.83649956016086 555.1675336983751 335.75830858441907Q568.671337673883 345.6801176086773 587.1518956967025 345.6801176086773L587.1518956967025 345.6801176086773Q609.2461477411368 345.6801176086773 621.2600954094878 332.74689689974L621.2600954094878 332.74689689974Q624.8420903607375 328.943008455935 626.8391317937351 323.8394581271633Q628.8361732267329 318.7042087280264 629.9456406895092 314.9320193545865Q631.0868072226508 311.12813091078135 632.1962746854274 311.12813091078135L632.1962746854274 311.12813091078135Q633.5276356407592 311.12813091078135 635.4295798626615 311.47682068479685Q637.3315240845641 311.79381138844724 638.4409915473407 312.4594918661131L638.4409915473407 312.4594918661131L639.550459010117 313.125172343779Q639.550459010117 314.4565332991108 638.6628850398959 319.3698892056923Q637.7753110696747 324.2832451122739 636.4122510439779 330.1792722001717Q635.0808900886461 336.07529928806946 633.8763254147746 340.54486820954037Q632.6400616705378 345.0144371310114 631.974381192872 345.458224116122L631.974381192872 345.458224116122Q615.4591655326851 355.2532368589199 578.6882439092362 355.2532368589199Z " fill="#ec8b5e" transform="matrix(1.3681485269522922,0,0,1.3681485269522922,0,-83.42805022391114)"/></g></svg>